<svg width="21" height="21" viewBox="0 0 21 21" fill="none" xmlns="http://www.w3.org/2000/svg">
<path d="M19.5 0.6875H0.8125C0.363086 0.6875 0 1.05059 0 1.5V20.1875C0 20.6369 0.363086 21 0.8125 21H19.5C19.9494 21 20.3125 20.6369 20.3125 20.1875V1.5C20.3125 1.05059 19.9494 0.6875 19.5 0.6875ZM17.1539 6.61621H15.5314C14.2594 6.61621 14.0131 7.22051 14.0131 8.10918V10.0668H17.0498L16.6537 13.1314H14.0131V21H10.8469V13.134H8.19863V10.0668H10.8469V7.80703C10.8469 5.18418 12.449 3.75469 14.79 3.75469C15.9123 3.75469 16.8746 3.83848 17.1564 3.87656V6.61621H17.1539Z" fill="#F9F9F9"/>
</svg>
