<svg width="23" height="22" viewBox="0 0 23 22" fill="none" xmlns="http://www.w3.org/2000/svg">
<path fill-rule="evenodd" clip-rule="evenodd" d="M6.7775 0.066C7.9505 0.012 8.3245 0 11.3125 0C14.3005 0 14.6745 0.013 15.8465 0.066C17.0185 0.119 17.8185 0.306 18.5185 0.577C19.2515 0.854 19.9165 1.287 20.4665 1.847C21.0265 2.396 21.4585 3.06 21.7345 3.794C22.0065 4.494 22.1925 5.294 22.2465 6.464C22.3005 7.639 22.3125 8.013 22.3125 11C22.3125 13.988 22.2995 14.362 22.2465 15.535C22.1935 16.705 22.0065 17.505 21.7345 18.205C21.4585 18.9391 21.0258 19.6042 20.4665 20.154C19.9165 20.714 19.2515 21.146 18.5185 21.422C17.8185 21.694 17.0185 21.88 15.8485 21.934C14.6745 21.988 14.3005 22 11.3125 22C8.3245 22 7.9505 21.987 6.7775 21.934C5.6075 21.881 4.8075 21.694 4.1075 21.422C3.37342 21.146 2.70832 20.7133 2.1585 20.154C1.59888 19.6047 1.16581 18.9399 0.8895 18.206C0.6185 17.506 0.4325 16.706 0.3785 15.536C0.3245 14.361 0.3125 13.987 0.3125 11C0.3125 8.012 0.3255 7.638 0.3785 6.466C0.4315 5.294 0.6185 4.494 0.8895 3.794C1.16622 3.06008 1.59962 2.39531 2.1595 1.846C2.70854 1.2865 3.37297 0.853443 4.1065 0.577C4.8065 0.306 5.6065 0.12 6.7765 0.066H6.7775ZM15.7575 2.046C14.5975 1.993 14.2495 1.982 11.3125 1.982C8.3755 1.982 8.0275 1.993 6.8675 2.046C5.7945 2.095 5.2125 2.274 4.8245 2.425C4.3115 2.625 3.9445 2.862 3.5595 3.247C3.19455 3.60205 2.91368 4.03428 2.7375 4.512C2.5865 4.9 2.4075 5.482 2.3585 6.555C2.3055 7.715 2.2945 8.063 2.2945 11C2.2945 13.937 2.3055 14.285 2.3585 15.445C2.4075 16.518 2.5865 17.1 2.7375 17.488C2.9135 17.965 3.1945 18.398 3.5595 18.753C3.9145 19.118 4.3475 19.399 4.8245 19.575C5.2125 19.726 5.7945 19.905 6.8675 19.954C8.0275 20.007 8.3745 20.018 11.3125 20.018C14.2505 20.018 14.5975 20.007 15.7575 19.954C16.8305 19.905 17.4125 19.726 17.8005 19.575C18.3135 19.375 18.6805 19.138 19.0655 18.753C19.4305 18.398 19.7115 17.965 19.8875 17.488C20.0385 17.1 20.2175 16.518 20.2665 15.445C20.3195 14.285 20.3305 13.937 20.3305 11C20.3305 8.063 20.3195 7.715 20.2665 6.555C20.2175 5.482 20.0385 4.9 19.8875 4.512C19.6875 3.999 19.4505 3.632 19.0655 3.247C18.7104 2.88207 18.2782 2.60121 17.8005 2.425C17.4125 2.274 16.8305 2.095 15.7575 2.046ZM9.9075 14.391C10.6922 14.7176 11.5659 14.7617 12.3794 14.5157C13.193 14.2697 13.8959 13.7489 14.3681 13.0422C14.8403 12.3356 15.0526 11.4869 14.9685 10.6411C14.8845 9.79534 14.5095 9.00497 13.9075 8.405C13.5237 8.02148 13.0597 7.72781 12.5488 7.54515C12.038 7.36248 11.4929 7.29536 10.953 7.34862C10.4131 7.40187 9.89165 7.57418 9.4263 7.85313C8.96095 8.13208 8.56324 8.51074 8.2618 8.96185C7.96036 9.41296 7.76269 9.92529 7.68302 10.462C7.60334 10.9986 7.64365 11.5463 7.80104 12.0655C7.95843 12.5847 8.22898 13.0626 8.59322 13.4647C8.95746 13.8668 9.40632 14.1832 9.9075 14.391ZM7.3145 7.002C7.83952 6.47697 8.46282 6.0605 9.1488 5.77636C9.83478 5.49222 10.57 5.34597 11.3125 5.34597C12.055 5.34597 12.7902 5.49222 13.4762 5.77636C14.1622 6.0605 14.7855 6.47697 15.3105 7.002C15.8355 7.52702 16.252 8.15032 16.5361 8.8363C16.8203 9.52228 16.9665 10.2575 16.9665 11C16.9665 11.7425 16.8203 12.4777 16.5361 13.1637C16.252 13.8497 15.8355 14.473 15.3105 14.998C14.2502 16.0583 12.812 16.654 11.3125 16.654C9.81296 16.654 8.37484 16.0583 7.3145 14.998C6.25416 13.9377 5.65847 12.4995 5.65847 11C5.65847 9.50046 6.25416 8.06234 7.3145 7.002ZM18.2205 6.188C18.3506 6.06527 18.4548 5.91768 18.5268 5.75397C18.5988 5.59027 18.6373 5.41377 18.6399 5.23493C18.6425 5.05609 18.6092 4.87855 18.542 4.71281C18.4747 4.54707 18.3749 4.39651 18.2485 4.27004C18.122 4.14357 17.9714 4.04376 17.8057 3.97652C17.64 3.90928 17.4624 3.87598 17.2836 3.87858C17.1047 3.88119 16.9282 3.91965 16.7645 3.9917C16.6008 4.06374 16.4532 4.1679 16.3305 4.298C16.0918 4.55103 15.9611 4.88712 15.9662 5.23493C15.9713 5.58274 16.1117 5.91488 16.3577 6.16084C16.6036 6.40681 16.9358 6.54723 17.2836 6.5523C17.6314 6.55737 17.9675 6.42669 18.2205 6.188Z" fill="#F9F9F9"/>
</svg>
