<svg width="23" height="22" viewBox="0 0 23 22" fill="none" xmlns="http://www.w3.org/2000/svg">
<path fill-rule="evenodd" clip-rule="evenodd" d="M0.3125 1.838C0.3125 1.35053 0.506146 0.883032 0.850838 0.53834C1.19553 0.193648 1.66303 2.45031e-06 2.1505 2.45031e-06H20.4725C20.7141 -0.000392101 20.9534 0.0468654 21.1766 0.139069C21.3999 0.231273 21.6028 0.366612 21.7737 0.537339C21.9447 0.708065 22.0802 0.910826 22.1727 1.13401C22.2651 1.3572 22.3126 1.59643 22.3125 1.838V20.16C22.3128 20.4016 22.2654 20.6409 22.1731 20.8642C22.0808 21.0875 21.9453 21.2904 21.7745 21.4613C21.6037 21.6322 21.4009 21.7678 21.1776 21.8602C20.9544 21.9526 20.7151 22.0001 20.4735 22H2.1505C1.90905 22 1.66996 21.9524 1.4469 21.86C1.22384 21.7676 1.02117 21.6321 0.850484 21.4613C0.679797 21.2905 0.544432 21.0878 0.452123 20.8647C0.359813 20.6416 0.312369 20.4025 0.3125 20.161V1.838ZM9.0205 8.388H11.9995V9.884C12.4295 9.024 13.5295 8.25 15.1825 8.25C18.3515 8.25 19.1025 9.963 19.1025 13.106V18.928H15.8955V13.822C15.8955 12.032 15.4655 11.022 14.3735 11.022C12.8585 11.022 12.2285 12.111 12.2285 13.822V18.928H9.0205V8.388ZM3.5205 18.791H6.7285V8.25H3.5205V18.79V18.791ZM7.1875 4.812C7.19355 5.08668 7.14467 5.35979 7.04374 5.61532C6.94281 5.87084 6.79185 6.10364 6.59973 6.30003C6.40761 6.49643 6.1782 6.65248 5.92496 6.75901C5.67171 6.86554 5.39974 6.92042 5.125 6.92042C4.85026 6.92042 4.57829 6.86554 4.32505 6.75901C4.0718 6.65248 3.84239 6.49643 3.65027 6.30003C3.45815 6.10364 3.30719 5.87084 3.20626 5.61532C3.10533 5.35979 3.05645 5.08668 3.0625 4.812C3.07437 4.27286 3.29689 3.75979 3.68239 3.38269C4.06789 3.00558 4.58572 2.79442 5.125 2.79442C5.66428 2.79442 6.18211 3.00558 6.56762 3.38269C6.95312 3.75979 7.17563 4.27286 7.1875 4.812Z" fill="#F9F9F9"/>
</svg>
