<svg width="21" height="20" viewBox="0 0 21 20" fill="none" xmlns="http://www.w3.org/2000/svg">
<g clip-path="url(#clip0_794_1996)">
<path d="M20.455 0.857258C20.5004 0.743678 20.5116 0.619252 20.487 0.499407C20.4624 0.379562 20.4032 0.269567 20.3167 0.183059C20.2302 0.0965504 20.1202 0.0373335 20.0003 0.0127492C19.8805 -0.0118351 19.756 -0.000705742 19.6425 0.0447576L1.45871 7.31851H1.45746L0.892461 7.54351C0.785448 7.58619 0.692318 7.65763 0.623355 7.74992C0.554393 7.84221 0.512283 7.95177 0.501677 8.06649C0.491072 8.18122 0.512383 8.29664 0.563257 8.40001C0.614131 8.50338 0.692588 8.59068 0.789961 8.65226L1.30246 8.97726L1.30371 8.97976L7.54746 12.9523L11.52 19.196L11.5225 19.1985L11.8475 19.711C11.9092 19.808 11.9966 19.8861 12.0999 19.9366C12.2032 19.9872 12.3184 20.0083 12.4329 19.9975C12.5474 19.9868 12.6567 19.9447 12.7488 19.8758C12.8409 19.807 12.9123 19.714 12.955 19.6073L20.455 0.857258ZM18.1637 3.21976L8.79621 12.5873L8.52746 12.1648C8.47822 12.0872 8.41249 12.0215 8.33496 11.9723L7.91246 11.7035L17.28 2.33601L18.7525 1.74726L18.1637 3.21976Z" fill="white"/>
</g>
<defs>
<clipPath id="clip0_794_1996">
<rect width="20" height="20" fill="white" transform="translate(0.5)"/>
</clipPath>
</defs>
</svg>
